# xmcd
#
# Track frame offsets: 
#        150
#        13976
#        24398
#        33053
#        48211
#        58712
#        69599
#        85626
#        99716
#        110177
#        124578
#        138347
#        147076
#
# Disc length: 2125 seconds
#
# Revision: 0
# Processed by: cddbd v1.5.2PL0 Copyright (c) Steve Scherf et al.
# Submitted via: ExactAudioCopy v0.95b3
#
DISCID=ac084b0d
DTITLE=Bee Gees  - Horizontal - Disc 2 (Bonus)
DYEAR=1900
DGENRE=
TTITLE0=Out Of Line - (Horizontal - CD 2 - 1967)
TTITLE1=Ring My Bell - (Horizontal - CD 2 - 1967)
TTITLE2=Barker Of the U.F.O. - (Horizontal - CD 2 - 1967)
TTITLE3=Words - (Horizontal - CD 2 - 1967)
TTITLE4=Sir Geoffrey Saved the World - (Horizontal - CD 2 - 1967)
TTITLE5=Sinking Ships - (Horizontal - CD 2 - 1967)
TTITLE6=Really and Sincerely (Alt.) - (Horizontal - CD 2 - 1967)
TTITLE7=Swan Song (Alt.) - (Horizontal - CD 2 - 1967)
TTITLE8=Mrs. Gillespie's Refrigerator - (Horizontal - CD 2 - 1967)
TTITLE9=Deeply, Deeply Me - (Horizontal - CD 2 - 1967)
TTITLE10=All My Christmases Came At Once - (Horizontal - CD 2 - 1967)
TTITLE11=Thank You For Christmas - (Horizontal - CD 2 - 1967)
TTITLE12=Silent Night  - Hark the Herald Angels Sing - (Horizontal - CD
TTITLE12=2 - 1967)
EXTD=
EXTT0=
EXTT1=
EXTT2=
EXTT3=
EXTT4=
EXTT5=
EXTT6=
EXTT7=
EXTT8=
EXTT9=
EXTT10=
EXTT11=
EXTT12=
PLAYORDER=
